<svg width="1080" height="1080" viewBox="0 0 1080 1080" fill="none" xmlns="http://www.w3.org/2000/svg">
<circle cx="311.5" cy="362.5" r="286.5" fill="#E9BF5B"/>
<path d="M269 318H641.5V396.5H549H269C269 396.5 233 409 233 450.5C233 474.5 269 491 269 491C269 491 523.5 491 560 493C633.426 497.023 678.5 553 678.5 644C678.5 742 621.614 783 549 783H155V702.5L549 700.5C549 700.5 595 690.5 595 644C595 584 549 573.5 549 573.5H269C269 573.5 146 559.5 146 450.5C146 333.5 269 318 269 318Z" fill="#B92A24"/>
<path fill-rule="evenodd" clip-rule="evenodd" d="M1005 783V318H921.5V506.367H662V318H584V476.875C584.912 477.045 586.174 477.299 587.737 477.664C590.954 478.415 595.461 479.637 600.83 481.551C611.55 485.372 625.829 491.996 640.124 503.241C661.388 519.968 682.098 546.471 691.597 587.73H921.5V783H1005ZM672.043 587.73H662V716.818C652.785 735.577 640.722 748.644 628.93 757.784C616.752 767.224 604.556 772.706 595.419 775.821C590.86 777.375 587.094 778.328 584.521 778.886C584.341 778.925 584.168 778.962 584 778.997V562.581V496.305C586.578 496.927 590.169 497.922 594.451 499.448C603.7 502.745 616.046 508.475 628.376 518.174C645.492 531.638 663.119 553.161 672.043 587.73ZM584 798.31C584.213 798.278 584.464 798.238 584.751 798.19C585.664 798.037 586.947 797.802 588.546 797.455C591.742 796.762 596.218 795.622 601.549 793.805C612.194 790.177 626.373 783.806 640.57 772.801C647.935 767.092 655.227 760.195 662 751.893V912L584 832.5V798.31Z" fill="#B92A24"/>
<path d="M1005 318H1005.5V317.5H1005V318ZM1005 783V783.5H1005.5V783H1005ZM921.5 318V317.5H921V318H921.5ZM921.5 506.367V506.867H922V506.367H921.5ZM662 506.367H661.5V506.867H662V506.367ZM662 318H662.5V317.5H662V318ZM584 318V317.5H583.5V318H584ZM584 476.875H583.5V477.291L583.909 477.367L584 476.875ZM587.737 477.664L587.623 478.151L587.623 478.151L587.737 477.664ZM600.83 481.551L600.998 481.08L600.998 481.08L600.83 481.551ZM640.124 503.241L639.814 503.634L639.814 503.634L640.124 503.241ZM691.597 587.73L691.11 587.842L691.199 588.23H691.597V587.73ZM921.5 587.73H922V587.23H921.5V587.73ZM921.5 783H921V783.5H921.5V783ZM672.043 587.73V588.23H672.689L672.527 587.605L672.043 587.73ZM662 587.73V587.23H661.5V587.73H662ZM662 716.818L662.449 717.038L662.5 716.934V716.818H662ZM628.93 757.784L628.624 757.389L628.624 757.389L628.93 757.784ZM595.419 775.821L595.258 775.348L595.258 775.348L595.419 775.821ZM584.521 778.886L584.415 778.398L584.415 778.398L584.521 778.886ZM584 778.997H583.5V779.613L584.103 779.487L584 778.997ZM584 496.305L584.117 495.819L583.5 495.67V496.305H584ZM594.451 499.448L594.619 498.977L594.619 498.977L594.451 499.448ZM628.376 518.174L628.686 517.781L628.686 517.781L628.376 518.174ZM584.751 798.19L584.669 797.697L584.669 797.697L584.751 798.19ZM584 798.31L583.924 797.816L583.5 797.881V798.31H584ZM588.546 797.455L588.652 797.944L588.652 797.944L588.546 797.455ZM601.549 793.805L601.711 794.278L601.711 794.278L601.549 793.805ZM640.57 772.801L640.876 773.196L640.876 773.196L640.57 772.801ZM662 751.893H662.5V750.489L661.613 751.577L662 751.893ZM662 912L661.643 912.35L662.5 913.224V912H662ZM584 832.5H583.5V832.704L583.643 832.85L584 832.5ZM603 587.73L602.601 588.031L602.751 588.23H603V587.73ZM1004.5 318V783H1005.5V318H1004.5ZM921.5 318.5H1005V317.5H921.5V318.5ZM922 506.367V318H921V506.367H922ZM662 506.867H921.5V505.867H662V506.867ZM661.5 318V506.367H662.5V318H661.5ZM584 318.5H662V317.5H584V318.5ZM584.5 476.875V318H583.5V476.875H584.5ZM583.909 477.367C584.814 477.535 586.068 477.788 587.623 478.151L587.85 477.177C586.28 476.811 585.011 476.554 584.091 476.384L583.909 477.367ZM587.623 478.151C590.824 478.899 595.313 480.115 600.662 482.022L600.998 481.08C595.609 479.159 591.083 477.932 587.85 477.177L587.623 478.151ZM600.662 482.022C611.344 485.829 625.571 492.429 639.814 503.634L640.433 502.848C626.086 491.562 611.757 484.915 600.998 481.08L600.662 482.022ZM639.814 503.634C660.996 520.296 681.638 546.702 691.11 587.842L692.084 587.617C682.558 546.24 661.781 519.641 640.433 502.848L639.814 503.634ZM921.5 587.23H691.597V588.23H921.5V587.23ZM922 783V587.73H921V783H922ZM1005 782.5H921.5V783.5H1005V782.5ZM672.043 587.23H662V588.23H672.043V587.23ZM661.5 587.73V716.818H662.5V587.73H661.5ZM629.236 758.179C641.082 748.998 653.197 735.873 662.449 717.038L661.551 716.597C652.373 735.281 640.362 748.29 628.624 757.389L629.236 758.179ZM595.581 776.294C604.757 773.166 617.005 767.66 629.236 758.179L628.624 757.389C616.499 766.787 604.355 772.247 595.258 775.348L595.581 776.294ZM584.626 779.375C587.216 778.814 591.001 777.855 595.581 776.294L595.258 775.348C590.719 776.895 586.972 777.843 584.415 778.398L584.626 779.375ZM584.103 779.487C584.271 779.451 584.446 779.414 584.626 779.375L584.415 778.398C584.236 778.436 584.064 778.473 583.897 778.508L584.103 779.487ZM584.5 778.997V562.581H583.5V778.997H584.5ZM584.5 562.581V496.305H583.5V562.581H584.5ZM594.619 498.977C590.319 497.444 586.711 496.445 584.117 495.819L583.883 496.791C586.446 497.409 590.02 498.4 594.283 499.919L594.619 498.977ZM628.686 517.781C616.304 508.041 603.906 502.288 594.619 498.977L594.283 499.919C603.493 503.202 615.789 508.909 628.067 518.567L628.686 517.781ZM672.527 587.605C663.573 552.921 645.88 531.306 628.686 517.781L628.067 518.567C645.105 531.969 662.664 553.401 671.559 587.855L672.527 587.605ZM584.669 797.697C584.384 797.744 584.135 797.784 583.924 797.816L584.076 798.805C584.291 798.772 584.544 798.731 584.833 798.683L584.669 797.697ZM588.44 796.966C586.849 797.311 585.574 797.545 584.669 797.697L584.833 798.683C585.754 798.529 587.044 798.292 588.652 797.944L588.44 796.966ZM601.388 793.332C596.077 795.142 591.62 796.277 588.44 796.966L588.652 797.944C591.864 797.247 596.359 796.102 601.711 794.278L601.388 793.332ZM640.264 772.406C626.12 783.369 611.993 789.717 601.388 793.332L601.711 794.278C612.395 790.636 626.626 784.242 640.876 773.196L640.264 772.406ZM661.613 751.577C654.865 759.848 647.601 766.719 640.264 772.406L640.876 773.196C648.269 767.466 655.589 760.543 662.387 752.209L661.613 751.577ZM661.5 751.893V912H662.5V751.893H661.5ZM662.357 911.65L584.357 832.15L583.643 832.85L661.643 912.35L662.357 911.65ZM584.5 832.5V798.31H583.5V832.5H584.5ZM603.399 587.428L584.399 562.28L583.601 562.883L602.601 588.031L603.399 587.428ZM662 587.23H603V588.23H662V587.23Z" fill="#B52B25"/>
</svg>
