<?xml version="1.0" encoding="UTF-8"?>
<svg version="1.1" xmlns="http://www.w3.org/2000/svg" width="300" height="100">
<path d="M0 0 C99 0 198 0 300 0 C300 33 300 66 300 100 C201 100 102 100 0 100 C0 67 0 34 0 0 Z " fill="#FDFEFE" transform="translate(0,0)"/>
<path d="M0 0 C4.83860076 -0.06919609 9.67545726 -0.12882835 14.51416016 -0.16479492 C16.15712326 -0.17980136 17.80004686 -0.20021312 19.44287109 -0.22631836 C21.81618042 -0.26306359 24.18895625 -0.27980772 26.5625 -0.29296875 C27.28679199 -0.30845261 28.01108398 -0.32393646 28.75732422 -0.33988953 C34.55918835 -0.34176729 40.1043215 0.66204976 44.72094727 4.38948059 C46 6 46 6 46.125 9.4375 C44.88875269 13.35228315 43.83108751 14.33043089 40.26855469 16.21704102 C35.66486898 17.80593685 30.87177625 17.40523424 26.0625 17.25 C24.46438477 17.22292969 24.46438477 17.22292969 22.83398438 17.1953125 C20.22171071 17.14845557 17.61133774 17.08286926 15 17 C15 15.68 15 14.36 15 13 C20.94 12.67 26.88 12.34 33 12 C33.33 10.35 33.66 8.7 34 7 C31.05618512 5.32871068 28.82616606 4.72268241 25.453125 4.5859375 C24.60878906 4.54726563 23.76445312 4.50859375 22.89453125 4.46875 C21.58548828 4.42234375 21.58548828 4.42234375 20.25 4.375 C19.36183594 4.33632813 18.47367188 4.29765625 17.55859375 4.2578125 C15.37272833 4.16379678 13.18639308 4.08081998 11 4 C11 9.94 11 15.88 11 22 C7.37 22 3.74 22 0 22 C0 14.74 0 7.48 0 0 Z " fill="#6476AC" transform="translate(198,39)"/>
<path d="M0 0 C4.4009322 0.83569856 6.61006557 2.43628857 9.3347168 5.94140625 C11.31693454 8.94939523 13.00102537 12.0458575 14.6328125 15.25390625 C15.37668464 16.57971701 16.1277215 17.90153965 16.88671875 19.21875 C17.46292969 20.22035156 18.03914063 21.22195312 18.6328125 22.25390625 C16.86332155 22.3620585 15.09193763 22.43956708 13.3203125 22.50390625 C11.84111328 22.57351562 11.84111328 22.57351562 10.33203125 22.64453125 C7.6328125 22.25390625 7.6328125 22.25390625 5.77734375 20.36328125 C4.6328125 18.25390625 4.6328125 18.25390625 4.6328125 16.25390625 C0.0128125 16.25390625 -4.6071875 16.25390625 -9.3671875 16.25390625 C-8.7071875 14.93390625 -8.0471875 13.61390625 -7.3671875 12.25390625 C-4.7271875 12.25390625 -2.0871875 12.25390625 0.6328125 12.25390625 C-0.6871875 10.27390625 -2.0071875 8.29390625 -3.3671875 6.25390625 C-6.38876698 6.72111481 -6.38876698 6.72111481 -8.56469727 8.74438477 C-8.89268311 9.36756592 -9.22066895 9.99074707 -9.55859375 10.6328125 C-15.87287745 21.77527478 -15.87287745 21.77527478 -20.46484375 23.24609375 C-23.24044106 23.19595393 -25.6818119 22.94311862 -28.3671875 22.25390625 C-26.7105582 19.60531351 -25.03771214 16.97450939 -23.31640625 14.3671875 C-21.3345836 11.35090061 -21.3345836 11.35090061 -20.01171875 8.296875 C-15.69008903 -0.16480336 -8.82412861 -0.79476507 0 0 Z " fill="#3353A2" transform="translate(35.3671875,38.74609375)"/>
<path d="M0 0 C4.43347664 0.79329164 6.55088487 2.25787749 9.26953125 5.953125 C10.38861003 7.96433651 11.45169839 10.00771082 12.45703125 12.078125 C13.61118645 13.98160101 14.7769848 15.87809075 15.95703125 17.765625 C16.79577886 19.19997264 17.63130935 20.63623941 18.45703125 22.078125 C16.68829145 22.21325792 14.9166007 22.31018086 13.14453125 22.390625 C12.15839844 22.44863281 11.17226562 22.50664063 10.15625 22.56640625 C9.26550781 22.40527344 8.37476563 22.24414062 7.45703125 22.078125 C6.99296875 21.2634375 6.52890625 20.44875 6.05078125 19.609375 C5.52484375 18.7740625 4.99890625 17.93875 4.45703125 17.078125 C1.04768529 16.25508487 1.04768529 16.25508487 -2.73046875 16.265625 C-4.00277344 16.21792969 -5.27507812 16.17023437 -6.5859375 16.12109375 C-7.56175781 16.10691406 -8.53757812 16.09273437 -9.54296875 16.078125 C-9.21296875 14.758125 -8.88296875 13.438125 -8.54296875 12.078125 C-5.57296875 12.078125 -2.60296875 12.078125 0.45703125 12.078125 C-0.20296875 11.129375 -0.86296875 10.180625 -1.54296875 9.203125 C-3.54296875 6.078125 -3.54296875 6.078125 -3.54296875 4.078125 C-4.53296875 4.078125 -5.52296875 4.078125 -6.54296875 4.078125 C-6.79175781 4.58859375 -7.04054688 5.0990625 -7.296875 5.625 C-13.17594179 17.19883681 -13.17594179 17.19883681 -17.54296875 22.078125 C-21.46068365 23.25646084 -24.58969096 23.00917734 -28.54296875 22.078125 C-27.18177275 19.70118804 -25.78819188 17.3580986 -24.3359375 15.03515625 C-22.49565556 12.10336179 -22.49565556 12.10336179 -21.03125 8.96484375 C-16.03839446 -0.00833019 -9.64215144 -0.90945818 0 0 Z " fill="#375B9F" transform="translate(129.54296875,38.921875)"/>
<path d="M0 0 C0.81700882 0.0028299 1.63401764 0.00565979 2.4757843 0.00857544 C5.08426584 0.01976709 7.69240355 0.0448696 10.30078125 0.0703125 C12.0696565 0.08034362 13.83853713 0.08946924 15.60742188 0.09765625 C19.94284074 0.11970308 24.2780027 0.1542258 28.61328125 0.1953125 C28.61328125 1.1853125 28.61328125 2.1753125 28.61328125 3.1953125 C27.79126221 3.20989502 26.96924316 3.22447754 26.12231445 3.23950195 C22.38966802 3.31407583 18.65790666 3.41070762 14.92578125 3.5078125 C13.63220703 3.53037109 12.33863281 3.55292969 11.00585938 3.57617188 C9.13510742 3.6293457 9.13510742 3.6293457 7.2265625 3.68359375 C5.50626831 3.72286987 5.50626831 3.72286987 3.7512207 3.76293945 C0.28599613 4.24040874 -1.65493452 5.02365248 -4.38671875 7.1953125 C-5.13671875 10.6953125 -5.13671875 10.6953125 -4.38671875 14.1953125 C-2.56927149 16.33143544 -1.04164263 17.09357528 1.72241211 17.52294922 C4.27144902 17.71543533 6.8078959 17.81675749 9.36328125 17.8828125 C10.69552734 17.93405273 10.69552734 17.93405273 12.0546875 17.98632812 C14.24075928 18.06859964 16.42644076 18.13781422 18.61328125 18.1953125 C18.61328125 15.8853125 18.61328125 13.5753125 18.61328125 11.1953125 C21.91328125 11.1953125 25.21328125 11.1953125 28.61328125 11.1953125 C28.61328125 14.4953125 28.61328125 17.7953125 28.61328125 21.1953125 C23.59622404 21.26973256 18.57949153 21.32404158 13.56201172 21.36010742 C11.85687662 21.37514988 10.15177993 21.39558903 8.44677734 21.42163086 C5.98916113 21.45821534 3.53205856 21.47508423 1.07421875 21.48828125 C0.31773041 21.50376511 -0.43875793 21.51924896 -1.21817017 21.53520203 C-6.84123351 21.53697095 -11.0195578 20.40466272 -15.26171875 16.4453125 C-16.92452629 13.11969741 -16.90119147 10.86093063 -16.38671875 7.1953125 C-11.4224439 1.15768092 -7.55046221 -0.09818048 0 0 Z " fill="#3A55A1" transform="translate(69.38671875,39.8046875)"/>
<path d="M0 0 C0.79339783 0.0028299 1.58679565 0.00565979 2.40423584 0.00857544 C4.93110417 0.01974471 7.45761432 0.04484306 9.984375 0.0703125 C11.7005157 0.08034652 13.41666198 0.08947163 15.1328125 0.09765625 C19.33347074 0.11967336 23.5338622 0.15418063 27.734375 0.1953125 C27.734375 1.5153125 27.734375 2.8353125 27.734375 4.1953125 C26.39475708 4.21718628 26.39475708 4.21718628 25.02807617 4.23950195 C21.71220222 4.30058327 18.39715601 4.37473728 15.08178711 4.45776367 C13.64732872 4.49100251 12.21273987 4.51903785 10.77807617 4.54174805 C8.71476693 4.57531521 6.65265197 4.62762663 4.58984375 4.68359375 C2.72815552 4.72286987 2.72815552 4.72286987 0.82885742 4.76293945 C-2.2250334 4.94881335 -2.2250334 4.94881335 -4.1706543 6.53979492 C-5.89269633 9.14339961 -5.64460559 11.16346781 -5.265625 14.1953125 C-4.22654987 15.98421158 -4.22654987 15.98421158 -2.265625 17.1953125 C0.92915475 17.7034615 0.92915475 17.7034615 4.58984375 17.70703125 C5.25148026 17.72498245 5.91311676 17.74293365 6.59480286 17.76142883 C8.70376247 17.81552148 10.81249599 17.84942181 12.921875 17.8828125 C14.35354708 17.91598677 15.78518933 17.95047655 17.21679688 17.98632812 C20.7224389 18.07124507 24.22815973 18.13806171 27.734375 18.1953125 C27.734375 19.5153125 27.734375 20.8353125 27.734375 22.1953125 C22.71734321 22.29453875 17.70088848 22.36694837 12.68310547 22.41503906 C10.97792606 22.43509619 9.27281494 22.46234907 7.56787109 22.49707031 C5.11017976 22.54585111 2.65340134 22.56833969 0.1953125 22.5859375 C-0.56117584 22.60658264 -1.31766418 22.62722778 -2.09707642 22.64849854 C-8.19314954 22.65105551 -11.71431991 20.66157409 -16.140625 16.3828125 C-17.83171317 13.0945855 -17.77643678 10.83484645 -17.265625 7.1953125 C-12.17477093 0.83174492 -7.86325954 -0.10585276 0 0 Z " fill="#51679D" transform="translate(264.265625,38.8046875)"/>
<path d="M0 0 C5.17803924 -0.0459816 10.35536633 -0.0857859 15.53344727 -0.10986328 C17.29388839 -0.11990351 19.05431291 -0.13353844 20.81469727 -0.15087891 C23.34916285 -0.17521436 25.88340739 -0.18650296 28.41796875 -0.1953125 C29.20149216 -0.20563507 29.98501556 -0.21595764 30.7922821 -0.22659302 C35.91833752 -0.22763889 39.55682457 0.45265556 43.875 3.1875 C45 5 45 5 45 8.5 C44 12 44 12 41.6875 13.875 C37.67132028 15.55619151 34.36888173 16.1242005 30.015625 16.09765625 C29.08105469 16.09443359 28.14648438 16.09121094 27.18359375 16.08789062 C25.73146484 16.07532227 25.73146484 16.07532227 24.25 16.0625 C23.26644531 16.05798828 22.28289062 16.05347656 21.26953125 16.04882812 C18.84629209 16.03706483 16.42317727 16.02062684 14 16 C14 15.01 14 14.02 14 13 C15.55460938 12.92652344 15.55460938 12.92652344 17.140625 12.8515625 C18.51044208 12.77650403 19.88023248 12.70095753 21.25 12.625 C21.93191406 12.5940625 22.61382812 12.563125 23.31640625 12.53125 C26.98739038 12.31740626 29.86251616 11.98922945 33 10 C32.505 7.525 32.505 7.525 32 5 C29.2097333 4.0699111 27.23470458 3.81301231 24.33203125 3.68359375 C22.99301758 3.62075195 22.99301758 3.62075195 21.62695312 3.55664062 C20.69818359 3.51732422 19.76941406 3.47800781 18.8125 3.4375 C17.87212891 3.39431641 16.93175781 3.35113281 15.96289062 3.30664062 C13.64209812 3.20061457 11.32106823 3.09980806 9 3 C9 8.61 9 14.22 9 20 C6.03 20 3.06 20 0 20 C0 13.4 0 6.8 0 0 Z " fill="#2C5298" transform="translate(151,40)"/>
<path d="M0 0 C0.33 0 0.66 0 1 0 C1.125 2.375 1.125 2.375 1 5 C0.34 5.66 -0.32 6.32 -1 7 C-1.33 8.98 -1.66 10.96 -2 13 C-15.365 13.495 -15.365 13.495 -29 14 C-29 14.99 -29 15.98 -29 17 C-19.1 17 -9.2 17 1 17 C0.67 18.32 0.34 19.64 0 21 C0 20.01 0 19.02 0 18 C-1.3317627 18.0314209 -1.3317627 18.0314209 -2.69042969 18.06347656 C-5.99294455 18.13175677 -9.2947067 18.1818487 -12.59765625 18.21972656 C-14.02551121 18.23980982 -15.45328425 18.26708252 -16.88085938 18.30175781 C-18.93640368 18.35042669 -20.99085855 18.37299967 -23.046875 18.390625 C-24.28276367 18.41157227 -25.51865234 18.43251953 -26.79199219 18.45410156 C-30 18 -30 18 -32.40332031 16.16308594 C-34 14 -34 14 -34.5 11 C-33.87476116 7.24856698 -32.9999837 6.29295788 -30 4 C-26.79199219 3.54589844 -26.79199219 3.54589844 -23.046875 3.609375 C-22.38665344 3.61503479 -21.72643188 3.62069458 -21.04620361 3.62652588 C-18.94671737 3.6488377 -16.8489663 3.69901686 -14.75 3.75 C-13.3229414 3.77007206 -11.89585592 3.78832161 -10.46875 3.8046875 C-6.97860707 3.84868307 -3.48947301 3.91767124 0 4 C0 2.68 0 1.36 0 0 Z " fill="#F2F7FB" transform="translate(292,39)"/>
<path d="M0 0 C0.33 0 0.66 0 1 0 C1 6.6 1 13.2 1 20 C3.97 20 6.94 20 10 20 C10 14.39 10 8.78 10 3 C13.2296738 2.91888261 16.45730014 2.85944408 19.6875 2.8125 C20.59951172 2.78736328 21.51152344 2.76222656 22.45117188 2.73632812 C27.47565155 2.68151562 30.90363103 2.71428089 35 6 C34.75 8.375 34.75 8.375 34 11 C30.44319517 13.63203558 26.475198 13.22883284 22.25 13.125 C21.55261719 13.11597656 20.85523438 13.10695313 20.13671875 13.09765625 C18.42433042 13.07419888 16.71211996 13.03833104 15 13 C15 13.99 15 14.98 15 16 C27.375 15.505 27.375 15.505 40 15 C38 17 38 17 35.38623047 17.22705078 C34.30744629 17.21657715 33.22866211 17.20610352 32.1171875 17.1953125 C30.95058594 17.18886719 29.78398437 17.18242188 28.58203125 17.17578125 C27.35871094 17.15902344 26.13539063 17.14226563 24.875 17.125 C23.64394531 17.11597656 22.41289062 17.10695313 21.14453125 17.09765625 C18.09616185 17.07402548 15.04817618 17.04108054 12 17 C11.67 18.32 11.34 19.64 11 21 C7.37 21 3.74 21 0 21 C0 14.07 0 7.14 0 0 Z " fill="#F8FAFC" transform="translate(150,40)"/>
<path d="M0 0 C4.43754015 -0.02689418 8.8749184 -0.04678777 13.3125 -0.0625 C14.57513672 -0.07087891 15.83777344 -0.07925781 17.13867188 -0.08789062 C18.95141602 -0.09272461 18.95141602 -0.09272461 20.80078125 -0.09765625 C21.91622314 -0.10289307 23.03166504 -0.10812988 24.1809082 -0.11352539 C27 0 27 0 30 1 C30 1.66 30 2.32 30 3 C23.07 3 16.14 3 9 3 C9 8.61 9 14.22 9 20 C6.03 20 3.06 20 0 20 C0 13.4 0 6.8 0 0 Z " fill="#294B9F" transform="translate(199,40)"/>
<path d="M0 0 C3.06303578 -0.08115993 6.12390815 -0.14057409 9.1875 -0.1875 C10.48397461 -0.22520508 10.48397461 -0.22520508 11.80664062 -0.26367188 C16.73038334 -0.32026662 19.96831189 -0.18027571 24 3 C23.125 7.875 23.125 7.875 22 9 C20.65732587 9.08631874 19.31025678 9.10706473 17.96484375 9.09765625 C17.15595703 9.09443359 16.34707031 9.09121094 15.51367188 9.08789062 C14.66353516 9.07951172 13.81339844 9.07113281 12.9375 9.0625 C12.08349609 9.05798828 11.22949219 9.05347656 10.34960938 9.04882812 C8.23304337 9.03700373 6.11651315 9.01906769 4 9 C4 10.32 4 11.64 4 13 C10.27 13 16.54 13 23 13 C23 13.33 23 13.66 23 14 C16.4 14 9.8 14 3 14 C3 13.01 3 12.02 3 11 C2.01 10.67 1.02 10.34 0 10 C0 6.7 0 3.4 0 0 Z " fill="#F1F5FC" transform="translate(209,43)"/>
<path d="M0 0 C1.39456452 0.00667256 2.78911118 0.01863093 4.18359375 0.03515625 C4.89451172 0.03966797 5.60542969 0.04417969 6.33789062 0.04882812 C8.09899388 0.06064761 9.86005411 0.07858362 11.62109375 0.09765625 C11.62109375 2.73765625 11.62109375 5.37765625 11.62109375 8.09765625 C8.62109375 7.09765625 8.62109375 7.09765625 6.62109375 4.09765625 C4.06925971 2.89315321 4.06925971 2.89315321 1.62109375 2.09765625 C1.37230469 2.608125 1.12351562 3.11859375 0.8671875 3.64453125 C-5.01187929 15.21836806 -5.01187929 15.21836806 -9.37890625 20.09765625 C-13.29662115 21.27599209 -16.42562846 21.02870859 -20.37890625 20.09765625 C-19.42149519 18.49293897 -18.4629422 16.88890296 -17.50390625 15.28515625 C-16.97023438 14.39183594 -16.4365625 13.49851562 -15.88671875 12.578125 C-12.60010441 7.17138897 -12.60010441 7.17138897 -9.37890625 6.09765625 C-7.67209678 4.47212342 -6.0023043 2.8064963 -4.37890625 1.09765625 C-3.37890625 0.09765625 -3.37890625 0.09765625 0 0 Z " fill="#28509F" transform="translate(121.37890625,40.90234375)"/>
<path d="M0 0 C0.5165918 0.4844458 1.03318359 0.9688916 1.56542969 1.46801758 C4.80208692 3.50472277 7.1438708 3.43101421 10.953125 3.51171875 C11.94345734 3.53864555 11.94345734 3.53864555 12.95379639 3.56611633 C15.05246689 3.62008809 17.15091177 3.65407043 19.25 3.6875 C20.67711464 3.72068495 22.10419956 3.75517571 23.53125 3.79101562 C27.02061652 3.8758047 30.51006191 3.94267888 34 4 C34 5.32 34 6.64 34 8 C28.90968245 8.04936158 23.81950357 8.08570105 18.72900391 8.10986328 C16.99655735 8.11993376 15.26412784 8.13359089 13.53173828 8.15087891 C11.04455361 8.17508162 8.55759325 8.18647239 6.0703125 8.1953125 C5.29317902 8.20563507 4.51604553 8.21595764 3.71536255 8.22659302 C1.80874507 8.22699271 -0.09731036 8.1223214 -2 8 C-2.66 7.34 -3.32 6.68 -4 6 C-2.84826645 3.53199953 -1.95216435 1.95216435 0 0 Z " fill="#516AA1" transform="translate(258,53)"/>
<path d="M0 0 C-0.99 0.33 -1.98 0.66 -3 1 C-3.91297308 5.97063121 -3.91297308 10.02936879 -3 15 C-3.99 15.495 -3.99 15.495 -5 16 C-5.33 16.66 -5.66 17.32 -6 18 C-8.97249386 17.68151851 -10.03839103 16.96374181 -12.25 14.875 C-14.48450361 11.20402978 -14.68010386 9.23175736 -14 5 C-10.22143592 -0.7287907 -6.28604791 -0.61627921 0 0 Z " fill="#2C4999" transform="translate(261,41)"/>
<path d="M0 0 C0.33 0 0.66 0 1 0 C1 6.6 1 13.2 1 20 C3.97 20 6.94 20 10 20 C10 14.39 10 8.78 10 3 C16.6 3 23.2 3 30 3 C30 3.33 30 3.66 30 4 C24.39 4 18.78 4 13 4 C13 6.64 13 9.28 13 12 C18.61 12 24.22 12 30 12 C30 12.33 30 12.66 30 13 C25.05 13 20.1 13 15 13 C15 13.99 15 14.98 15 16 C27.375 15.505 27.375 15.505 40 15 C38 17 38 17 35.38623047 17.22705078 C34.30744629 17.21657715 33.22866211 17.20610352 32.1171875 17.1953125 C30.95058594 17.18886719 29.78398437 17.18242188 28.58203125 17.17578125 C27.35871094 17.15902344 26.13539063 17.14226563 24.875 17.125 C23.64394531 17.11597656 22.41289062 17.10695313 21.14453125 17.09765625 C18.09616185 17.07402548 15.04817618 17.04108054 12 17 C11.67 18.32 11.34 19.64 11 21 C7.37 21 3.74 21 0 21 C0 14.07 0 7.14 0 0 Z " fill="#ADBFDF" transform="translate(150,40)"/>
<path d="M0 0 C2.64 0 5.28 0 8 0 C7.67 5.94 7.34 11.88 7 18 C4.69 18 2.38 18 0 18 C0 12.06 0 6.12 0 0 Z " fill="#2453A6" transform="translate(152,41)"/>
<path d="M0 0 C1.22763565 0.00212242 1.22763565 0.00212242 2.48007202 0.00428772 C5.09873075 0.00989335 7.71730454 0.02244677 10.3359375 0.03515625 C12.10937377 0.04017053 13.88281137 0.04473356 15.65625 0.04882812 C20.00784532 0.05986461 24.359377 0.077133 28.7109375 0.09765625 C28.7109375 1.08765625 28.7109375 2.07765625 28.7109375 3.09765625 C27.89415527 3.11223877 27.07737305 3.12682129 26.23583984 3.1418457 C22.5187399 3.21652548 18.80251831 3.31312237 15.0859375 3.41015625 C13.15814453 3.44399414 13.15814453 3.44399414 11.19140625 3.47851562 C9.32548828 3.53168945 9.32548828 3.53168945 7.421875 3.5859375 C6.28024902 3.61212158 5.13862305 3.63830566 3.96240234 3.6652832 C0.35261421 4.14530534 -2.14138504 5.30702384 -5.2890625 7.09765625 C-5.6190625 6.10765625 -5.9490625 5.11765625 -6.2890625 4.09765625 C-5.2990625 4.09765625 -4.3090625 4.09765625 -3.2890625 4.09765625 C-3.2890625 3.43765625 -3.2890625 2.77765625 -3.2890625 2.09765625 C-4.6090625 1.76765625 -5.9290625 1.43765625 -7.2890625 1.09765625 C-7.6190625 1.75765625 -7.9490625 2.41765625 -8.2890625 3.09765625 C-8.9490625 2.43765625 -9.6090625 1.77765625 -10.2890625 1.09765625 C-7.06302705 -0.51536148 -3.54196212 -0.02287974 0 0 Z " fill="#465BA0" transform="translate(69.2890625,39.90234375)"/>
<path d="M0 0 C4.43754015 -0.02689418 8.8749184 -0.04678777 13.3125 -0.0625 C14.57513672 -0.07087891 15.83777344 -0.07925781 17.13867188 -0.08789062 C18.95141602 -0.09272461 18.95141602 -0.09272461 20.80078125 -0.09765625 C21.91622314 -0.10289307 23.03166504 -0.10812988 24.1809082 -0.11352539 C27 0 27 0 30 1 C30 1.66 30 2.32 30 3 C23.07 3 16.14 3 9 3 C9 8.61 9 14.22 9 20 C6.03 20 3.06 20 0 20 C0 13.4 0 6.8 0 0 Z M1 1 C1 6.94 1 12.88 1 19 C3.31 19 5.62 19 8 19 C8 13.06 8 7.12 8 1 C5.69 1 3.38 1 1 1 Z " fill="#344C8E" transform="translate(199,40)"/>
<path d="M0 0 C8.58 0 17.16 0 26 0 C26 1.32 26 2.64 26 4 C17.75 4 9.5 4 1 4 C0.67 2.68 0.34 1.36 0 0 Z " fill="#5E75A9" transform="translate(263,48)"/>
<path d="M0 0 C3.78125 0.7578125 3.78125 0.7578125 5.75 2.9375 C7 5 7 5 7 7 C3.97265625 7.24414062 3.97265625 7.24414062 0.9453125 7.48828125 C-1.39519216 7.87393036 -1.39519216 7.87393036 -3 11 C1.62 11 6.24 11 11 11 C7.49081164 13.33945891 6.12601003 13.18890962 2 13.0625 C-1.42963591 12.96583134 -3.72971413 12.90990471 -7 14 C-7 14.66 -7 15.32 -7 16 C-8.32 16.33 -9.64 16.66 -11 17 C-7.81243454 10.90695451 -4.27290439 5.38885193 0 0 Z " fill="#EBF3FB" transform="translate(29,44)"/>
<path d="M0 0 C0.33 0.99 0.66 1.98 1 3 C1.66 3 2.32 3 3 3 C3 4.32 3 5.64 3 7 C3.66 7 4.32 7 5 7 C5.66 5.68 6.32 4.36 7 3 C7.66 3.33 8.32 3.66 9 4 C7.38763727 7.42882201 5.73315938 10.34950707 3 13 C-0.77672004 13.79264495 -4.19799339 13.54797604 -8 13 C-7.04258894 11.39528272 -6.08403595 9.79124671 -5.125 8.1875 C-4.59132813 7.29417969 -4.05765625 6.40085937 -3.5078125 5.48046875 C-2.38116908 3.62705276 -1.20313389 1.80470083 0 0 Z " fill="#2C52A1" transform="translate(109,48)"/>
<path d="M0 0 C0.66 0 1.32 0 2 0 C2 0.99 2 1.98 2 3 C2.66 3.33 3.32 3.66 4 4 C3.67 6.64 3.34 9.28 3 12 C12.9 12 22.8 12 33 12 C32.67 13.32 32.34 14.64 32 16 C32 15.01 32 14.02 32 13 C30.6682373 13.0314209 30.6682373 13.0314209 29.30957031 13.06347656 C26.00705545 13.13175677 22.7052933 13.1818487 19.40234375 13.21972656 C17.97448879 13.23980982 16.54671575 13.26708252 15.11914062 13.30175781 C13.06359632 13.35042669 11.00914145 13.37299967 8.953125 13.390625 C7.71723633 13.41157227 6.48134766 13.43251953 5.20800781 13.45410156 C2 13 2 13 -0.41113281 11.16699219 C-2.53431915 8.27126355 -2.44868027 6.51466213 -2 3 C-1.34 2.01 -0.68 1.02 0 0 Z " fill="#DFEBF9" transform="translate(260,44)"/>
<path d="M0 0 C0.99 0 1.98 0 3 0 C7 5.25714286 7 5.25714286 7 8 C4.03 8 1.06 8 -2 8 C-2.33 9.65 -2.66 11.3 -3 13 C-4.98 13.66 -6.96 14.32 -9 15 C-7.38331903 11.62186065 -5.52420189 8.43934759 -3.5625 5.25 C-2.66724609 3.77273437 -2.66724609 3.77273437 -1.75390625 2.265625 C-1.17511719 1.51796875 -0.59632812 0.7703125 0 0 Z " fill="#E4F0F9" transform="translate(123,43)"/>
<path d="M0 0 C0.99 0.66 1.98 1.32 3 2 C0.36608894 6.73453643 -2.26726731 11.04863582 -6 15 C-9.89432763 16.10339283 -13.07216604 15.85898425 -17 15 C-15.68 12.69 -14.36 10.38 -13 8 C-12.71125 8.639375 -12.4225 9.27875 -12.125 9.9375 C-11.17176549 12.15206079 -11.17176549 12.15206079 -9 13 C-8.67 13.33 -8.34 13.66 -8 14 C-7.9071875 12.9171875 -7.9071875 12.9171875 -7.8125 11.8125 C-6.7446249 8.11600926 -4.89180184 6.46861132 -2 4 C-1.34 4 -0.68 4 0 4 C0 2.68 0 1.36 0 0 Z " fill="#3D559E" transform="translate(24,46)"/>
<path d="M0 0 C1.98 0.66 3.96 1.32 6 2 C5.67 4.97 5.34 7.94 5 11 C1.29847322 11.92538169 0.36541838 12.08174162 -3 11 C-2.69217504 9.35328588 -2.37860766 7.70764424 -2.0625 6.0625 C-1.88847656 5.14597656 -1.71445313 4.22945312 -1.53515625 3.28515625 C-1 1 -1 1 0 0 Z " fill="#2749A0" transform="translate(235,43)"/>
<path d="M0 0 C2.97 0 5.94 0 9 0 C8.67 2.97 8.34 5.94 8 9 C5.66705225 9.04241723 3.33297433 9.04092937 1 9 C0 8 0 8 -0.09765625 6.15234375 C-0.06510417 4.1015625 -0.03255208 2.05078125 0 0 Z " fill="#334D9F" transform="translate(89,51)"/>
<path d="M0 0 C3.96 0 7.92 0 12 0 C12.87890625 8.49609375 12.87890625 8.49609375 13 11 C12 12 12 12 8.67358398 12.11352539 C7.19774444 12.11336629 5.72189931 12.10767314 4.24609375 12.09765625 C3.47064713 12.0962413 2.6952005 12.09482635 1.89625549 12.09336853 C-0.59003494 12.08775345 -3.0762366 12.07519846 -5.5625 12.0625 C-7.24413933 12.05748694 -8.92578006 12.0529237 -10.60742188 12.04882812 C-14.73831566 12.03777913 -18.86914276 12.02050445 -23 12 C-23 11.67 -23 11.34 -23 11 C-12.11 11 -1.22 11 10 11 C10 7.7 10 4.4 10 1 C6.7 1 3.4 1 0 1 C0 0.67 0 0.34 0 0 Z " fill="#CCDAF3" transform="translate(88,50)"/>
<path d="M0 0 C0.33 0.66 0.66 1.32 1 2 C2.03640625 1.95359375 3.0728125 1.9071875 4.140625 1.859375 C5.51038779 1.82184725 6.88018182 1.78544816 8.25 1.75 C9.27287109 1.69972656 9.27287109 1.69972656 10.31640625 1.6484375 C13.82390903 1.58033065 15.57828892 1.64140215 18.296875 3.953125 C18.85890625 4.62859375 19.4209375 5.3040625 20 6 C20.99 6.33 21.98 6.66 23 7 C23.33 6.01 23.66 5.02 24 4 C24.99 5.65 25.98 7.3 27 9 C25.23050905 9.10815225 23.45912513 9.18566083 21.6875 9.25 C20.70136719 9.29640625 19.71523438 9.3428125 18.69921875 9.390625 C16 9 16 9 14.14453125 7.109375 C13 5 13 5 13 3 C8.38 3 3.76 3 -1 3 C-0.67 2.01 -0.34 1.02 0 0 Z " fill="#405B92" transform="translate(27,52)"/>
<path d="M0 0 C0.99 0.99 1.98 1.98 3 3 C-3.93 3 -10.86 3 -18 3 C-18 2.01 -18 1.02 -18 0 C-15.56288386 -0.19484938 -13.12562602 -0.38115178 -10.6875 -0.5625 C-9.99720703 -0.61857422 -9.30691406 -0.67464844 -8.59570312 -0.73242188 C-5.37487726 -0.96581505 -3.09672655 -1.03224218 0 0 Z " fill="#3B5A98" transform="translate(183,53)"/>
<path d="M0 0 C4.95 0 9.9 0 15 0 C15.33 0.66 15.66 1.32 16 2 C18.32156597 2.40729228 20.6568787 2.74438677 23 3 C23 3.33 23 3.66 23 4 C15.41 4 7.82 4 0 4 C0 2.68 0 1.36 0 0 Z " fill="#5B70A5" transform="translate(213,52)"/>
<path d="M0 0 C1.9375 0.8125 1.9375 0.8125 4 2 C4.33 2.99 4.66 3.98 5 5 C5.66 5 6.32 5 7 5 C7 5.99 7 6.98 7 8 C10.63 8 14.26 8 18 8 C18 8.33 18 8.66 18 9 C16.41693353 9.16918268 14.83353281 9.33523936 13.25 9.5 C12.36828125 9.5928125 11.4865625 9.685625 10.578125 9.78125 C6.40934463 10.1349647 2.40089617 9.89532345 -1.75 9.5 C-3.22726563 9.36078125 -3.22726563 9.36078125 -4.734375 9.21875 C-5.48203125 9.1465625 -6.2296875 9.074375 -7 9 C-6.67 8.34 -6.34 7.68 -6 7 C-2.7 7 0.6 7 4 7 C2.02 3.535 2.02 3.535 0 0 Z " fill="#E5EEFA" transform="translate(143,53)"/>
<path d="M0 0 C0 0.33 0 0.66 0 1 C-1.08539063 0.99097656 -2.17078125 0.98195312 -3.2890625 0.97265625 C-11.14829387 0.82659039 -11.14829387 0.82659039 -18.29296875 3.484375 C-19.76454547 5.25480663 -20.90206688 6.98050856 -22 9 C-22.61875 9.804375 -23.2375 10.60875 -23.875 11.4375 C-24.24625 11.953125 -24.6175 12.46875 -25 13 C-26 10 -26 10 -25.234375 7.51953125 C-19.5105875 -2.91884965 -10.50316751 -0.94434073 0 0 Z " fill="#5267A8" transform="translate(40,40)"/>
<path d="M0 0 C0.33 0 0.66 0 1 0 C1.13020833 1.98567708 1.26041667 3.97135417 1.390625 5.95703125 C1.87878572 8.08530408 1.87878572 8.08530408 3.4375 9.71875 C7.40860708 11.70430354 11.36601384 11.57417687 15.75 11.6875 C17.08224609 11.73874023 17.08224609 11.73874023 18.44140625 11.79101562 C20.62747803 11.87328714 22.81315951 11.94250172 25 12 C25 12.33 25 12.66 25 13 C17.08 13.33 9.16 13.66 1 14 C0.14778004 10.59112017 -0.10783755 8.19565369 -0.0625 4.75 C-0.05347656 3.85796875 -0.04445312 2.9659375 -0.03515625 2.046875 C-0.02355469 1.37140625 -0.01195312 0.6959375 0 0 Z " fill="#384D96" transform="translate(63,46)"/>
<path d="M0 0 C0.99 0.33 1.98 0.66 3 1 C2.01 1.7734375 2.01 1.7734375 1 2.5625 C-1.27533309 4.9225021 -1.27533309 4.9225021 -1.5625 8.375 C-0.83271916 13.07803205 0.722069 14.64012072 4 18 C1.1875 18.25 1.1875 18.25 -2 18 C-3.875 16.125 -3.875 16.125 -5 14 C-5 13.34 -5 12.68 -5 12 C-4.34 12 -3.68 12 -3 12 C-3.03480469 11.30132812 -3.06960937 10.60265625 -3.10546875 9.8828125 C-3.13253906 8.97273438 -3.15960938 8.06265625 -3.1875 7.125 C-3.22230469 6.22007813 -3.25710937 5.31515625 -3.29296875 4.3828125 C-3.19628906 3.59648438 -3.09960938 2.81015625 -3 2 C-2.01 1.34 -1.02 0.68 0 0 Z " fill="#E0EDF9" transform="translate(55,42)"/>
<path d="M0 0 C0.85529297 0.04511719 1.71058594 0.09023438 2.59179688 0.13671875 C3.89213867 0.14638672 3.89213867 0.14638672 5.21875 0.15625 C9.88539637 0.27972547 9.88539637 0.27972547 11.90429688 0.76171875 C12.56429687 1.75171875 13.22429687 2.74171875 13.90429688 3.76171875 C12.91429687 4.25671875 12.91429687 4.25671875 11.90429688 4.76171875 C11.24429688 4.10171875 10.58429688 3.44171875 9.90429688 2.76171875 C1.68402431 1.70210958 1.68402431 1.70210958 -6.02539062 3.8828125 C-7.44745086 5.39010034 -7.44745086 5.39010034 -9.09570312 7.76171875 C-10.08570312 7.76171875 -11.07570313 7.76171875 -12.09570312 7.76171875 C-8.81039233 1.76009944 -6.90503226 -0.07488029 0 0 Z " fill="#41639A" transform="translate(122.095703125,39.23828125)"/>
<path d="M0 0 C0.95904856 3.83619425 0.91892116 5.32431536 0 9 C1.65 9 3.3 9 5 9 C5 9.33 5 9.66 5 10 C1.37 10 -2.26 10 -6 10 C-4.02 6.7 -2.04 3.4 0 0 Z " fill="#46659E" transform="translate(107,51)"/>
<path d="M0 0 C-0.33 0.99 -0.66 1.98 -1 3 C-1.99 3 -2.98 3 -4 3 C-4 3.66 -4 4.32 -4 5 C-5.98 5.66 -7.96 6.32 -10 7 C-10.33 6.01 -10.66 5.02 -11 4 C-10.34 3.67 -9.68 3.34 -9 3 C-9 2.34 -9 1.68 -9 1 C-5.92677456 0.08941469 -3.19902639 -0.08886184 0 0 Z " fill="#2B4BA5" transform="translate(67,41)"/>
<path d="M0 0 C0.99 0.33 1.98 0.66 3 1 C3 3.97 3 6.94 3 10 C1.68 9.34 0.36 8.68 -1 8 C-1.99 8.66 -2.98 9.32 -4 10 C-4.33 9.34 -4.66 8.68 -5 8 C-4.54625 7.608125 -4.0925 7.21625 -3.625 6.8125 C-1.72357081 4.69167513 -0.93795972 2.66957765 0 0 Z " fill="#E0EDF9" transform="translate(245,45)"/>
<path d="M0 0 C0.66 1.32 1.32 2.64 2 4 C1.34 4 0.68 4 0 4 C-0.33 5.98 -0.66 7.96 -1 10 C-2.98 10.66 -4.96 11.32 -7 12 C-5.61735163 9.13132769 -4.07851447 6.43975968 -2.375 3.75 C-1.92898437 3.04359375 -1.48296875 2.3371875 -1.0234375 1.609375 C-0.68570313 1.07828125 -0.34796875 0.5471875 0 0 Z " fill="#D9E8F3" transform="translate(121,46)"/>
<path d="M0 0 C-0.6875 3.375 -0.6875 3.375 -2 7 C-4.625 8.4375 -4.625 8.4375 -7 9 C-7.25 6.1875 -7.25 6.1875 -7 3 C-4.54157496 0.45680168 -3.57478534 0 0 0 Z " fill="#274BA6" transform="translate(26,43)"/>
<path d="M0 0 C0.33 0 0.66 0 1 0 C1.2475 0.94875 1.495 1.8975 1.75 2.875 C2.6857077 6.08693191 2.6857077 6.08693191 5.125 7.375 C5.74375 7.58125 6.3625 7.7875 7 8 C7 9.65 7 11.3 7 13 C3.62822203 11.60478153 1.74982291 10.23717239 0 7 C-0.1875 3.25 -0.1875 3.25 0 0 Z " fill="#415898" transform="translate(247,46)"/>
<path d="M0 0 C0.2475 0.61875 0.495 1.2375 0.75 1.875 C2.20628639 4.35068687 3.37812506 4.95125002 6 6 C6 6.33 6 6.66 6 7 C2.7 7 -0.6 7 -4 7 C-2.68 4.69 -1.36 2.38 0 0 Z " fill="#445DA0" transform="translate(11,54)"/>
<path d="M0 0 C2.6486859 3.19668988 4.93992341 6.39486597 7 10 C3.37 10 -0.26 10 -4 10 C-4 9.67 -4 9.34 -4 9 C-0.535 8.505 -0.535 8.505 3 8 C2.67 6.68 2.34 5.36 2 4 C1.01 4 0.02 4 -1 4 C-0.67 2.68 -0.34 1.36 0 0 Z " fill="#526AA1" transform="translate(141,51)"/>
<path d="M0 0 C1.32 0 2.64 0 4 0 C4 0.99 4 1.98 4 3 C4.66 3 5.32 3 6 3 C6 3.66 6 4.32 6 5 C2.94736336 5.98120464 1.05263664 5.98120464 -2 5 C-1.34 3.35 -0.68 1.7 0 0 Z " fill="#334D9F" transform="translate(234,49)"/>
<path d="M0 0 C0.99 0 1.98 0 3 0 C2.67 1.65 2.34 3.3 2 5 C2.66 5.33 3.32 5.66 4 6 C3.01 7.485 3.01 7.485 2 9 C1.34 9 0.68 9 0 9 C0 6.03 0 3.06 0 0 Z " fill="#EAF7F2" transform="translate(100,51)"/>
<path d="M0 0 C1.32 0.99 2.64 1.98 4 3 C3.74438677 5.3431213 3.40729228 7.67843403 3 10 C2.01 10.495 2.01 10.495 1 11 C0.67 7.37 0.34 3.74 0 0 Z " fill="#426096" transform="translate(192,42)"/>
<path d="M0 0 C0.99 0.33 1.98 0.66 3 1 C0.69 4.63 -1.62 8.26 -4 12 C-4.33 10.68 -4.66 9.36 -5 8 C-4.34 7.01 -3.68 6.02 -3 5 C-2.34 5 -1.68 5 -1 5 C-0.67 3.35 -0.34 1.7 0 0 Z " fill="#DEEDFA" transform="translate(109,44)"/>
<path d="M0 0 C0.66 0.33 1.32 0.66 2 1 C0.35 3.64 -1.3 6.28 -3 9 C-3.66 8.67 -4.32 8.34 -5 8 C-5.625 5.9375 -5.625 5.9375 -6 4 C-5.34 3.67 -4.68 3.34 -4 3 C-3.34 3.33 -2.68 3.66 -2 4 C-1.34 2.68 -0.68 1.36 0 0 Z " fill="#3B609D" transform="translate(116,51)"/>
<path d="M0 0 C1.32 0.66 2.64 1.32 4 2 C2.68 2 1.36 2 0 2 C0.33 2.99 0.66 3.98 1 5 C0.34 5.66 -0.32 6.32 -1 7 C-1.69748583 8.31747324 -2.36959957 9.64914193 -3 11 C-3.36923077 4.6 -3.36923077 4.6 -1.5 1.5625 C-1.005 1.046875 -0.51 0.53125 0 0 Z " fill="#4463A3" transform="translate(56,43)"/>
<path d="M0 0 C0.33 0.99 0.66 1.98 1 3 C-0.3921875 2.9071875 -0.3921875 2.9071875 -1.8125 2.8125 C-4.98395103 2.69105736 -4.98395103 2.69105736 -6.875 4.5 C-7.24625 4.995 -7.6175 5.49 -8 6 C-8.33 5.34 -8.66 4.68 -9 4 C-9.99 3.34 -10.98 2.68 -12 2 C-10.56342755 1.66269158 -9.12569907 1.33030409 -7.6875 1 C-6.88699219 0.814375 -6.08648437 0.62875 -5.26171875 0.4375 C-3 0 -3 0 0 0 Z " fill="#405DA0" transform="translate(41,41)"/>
<path d="M0 0 C3.63 0 7.26 0 11 0 C11 0.33 11 0.66 11 1 C9.35 1 7.7 1 6 1 C6.33 1.99 6.66 2.98 7 4 C6.01 4.495 6.01 4.495 5 5 C4.01 4.34 3.02 3.68 2 3 C2.33 2.34 2.66 1.68 3 1 C2.01 0.67 1.02 0.34 0 0 Z " fill="#455B9D" transform="translate(226,40)"/>
<path d="M0 0 C1.32 1.32 2.64 2.64 4 4 C2.25 5.5625 2.25 5.5625 0 7 C-2.25 6.6875 -2.25 6.6875 -4 6 C-2.84826645 3.53199953 -1.95216435 1.95216435 0 0 Z " fill="#455AA3" transform="translate(258,53)"/>
<path d="M0 0 C1.32 0.33 2.64 0.66 4 1 C3.2884375 1.8353125 3.2884375 1.8353125 2.5625 2.6875 C0.87604004 5.18346074 0.41046893 7.0446237 0 10 C-2 7 -2 7 -1.6875 4.4375 C-1 2 -1 2 0 0 Z " fill="#375292" transform="translate(258,42)"/>
<path d="M0 0 C0.99 0.33 1.98 0.66 3 1 C2.34 1 1.68 1 1 1 C0.773125 1.556875 0.54625 2.11375 0.3125 2.6875 C-1.35896766 5.63246684 -3.55276352 7.68156544 -6 10 C-4.6302836 6.00499382 -2.74277578 3.19990508 0 0 Z " fill="#D4E4F4" transform="translate(29,44)"/>
<path d="M0 0 C0.66 0.33 1.32 0.66 2 1 C1.67 2.65 1.34 4.3 1 6 C-0.32 6.33 -1.64 6.66 -3 7 C-2.67 5.68 -2.34 4.36 -2 3 C-1.34 3 -0.68 3 0 3 C0 2.01 0 1.02 0 0 Z " fill="#D7E2F4" transform="translate(231,45)"/>
<path d="M0 0 C0.66 1.32 1.32 2.64 2 4 C1.34 4 0.68 4 0 4 C0 4.66 0 5.32 0 6 C-1.32 6.33 -2.64 6.66 -4 7 C-2.68 4.69 -1.36 2.38 0 0 Z " fill="#DFE8F4" transform="translate(22,54)"/>
</svg>
